# Blender 4.3.1
# www.blender.org
mtllib ceiling 2 v2.mtl
o Ceiling2
v 0.000000 8.000027 -100.000015
v 100.000000 8.000027 -100.000015
v 0.000000 1.542065 -100.000015
v 100.000000 1.542065 -100.000015
v 0.000000 1.542072 -0.000015
v 100.000000 1.542072 -0.000015
v 0.000000 8.000034 -0.000016
v 100.000000 8.000034 -0.000016
v 10.003998 1.542065 -100.000015
v 89.996002 1.542065 -100.000015
v 89.996002 1.542072 -0.000015
v 10.003998 1.542072 -0.000015
v 10.003998 1.542066 -85.714310
v 89.996002 1.542066 -85.714310
v 10.003998 1.542067 -71.428574
v 89.996002 1.542067 -71.428574
v 10.003998 1.542068 -57.142868
v 89.996002 1.542068 -57.142868
v 10.003998 1.542069 -42.857162
v 89.996002 1.542069 -42.857162
v 10.003998 1.542070 -28.571457
v 89.996002 1.542070 -28.571457
v 10.003998 1.542071 -14.285721
v 89.996002 1.542071 -14.285721
v 0.000000 -7.700397 -100.000015
v 0.000000 -7.700390 -0.000015
v 100.000000 -7.700397 -100.000015
v 100.000000 -7.700390 -0.000015
v 10.003998 1.542066 -85.714310
v 89.996002 1.542066 -85.714310
v 89.996002 1.542067 -71.428574
v 10.003998 1.542067 -71.428574
v 10.003998 1.542068 -57.142868
v 89.996002 1.542068 -57.142868
v 89.996002 1.542069 -42.857162
v 10.003998 1.542069 -42.857162
v 10.003998 1.542070 -28.571457
v 89.996002 1.542070 -28.571457
v 89.996002 1.542071 -14.285721
v 10.003998 1.542071 -14.285721
v 9.733322 -7.429722 -100.000015
v 9.079849 -7.700397 -100.000015
v 10.003998 -6.776249 -100.000015
v 9.079849 -7.700397 -85.714310
v 9.733322 -7.429721 -85.714310
v 10.003998 -6.776248 -85.714310
v 9.079849 -7.700395 -71.428574
v 9.733322 -7.429719 -71.428574
v 10.003998 -6.776247 -71.428574
v 9.079849 -7.700394 -57.142868
v 9.733322 -7.429718 -57.142868
v 10.003998 -6.776246 -57.142868
v 9.079849 -7.700393 -42.857162
v 9.733322 -7.429718 -42.857162
v 10.003998 -6.776245 -42.857162
v 9.079849 -7.700392 -28.571457
v 9.733322 -7.429717 -28.571457
v 10.003998 -6.776244 -28.571457
v 9.079849 -7.700391 -14.285720
v 9.733322 -7.429715 -14.285720
v 10.003998 -6.776242 -14.285720
v 9.079849 -7.700390 -0.000015
v 9.733322 -7.429714 -0.000015
v 10.003998 -6.776241 -0.000015
v 90.920166 -7.700390 -0.000015
v 89.996002 -6.776241 -0.000015
v 90.266693 -7.429714 -0.000015
v 90.920166 -7.700391 -14.285720
v 90.266693 -7.429715 -14.285720
v 89.996002 -6.776242 -14.285720
v 90.920166 -7.700392 -28.571457
v 90.266693 -7.429717 -28.571457
v 89.996002 -6.776244 -28.571457
v 90.920166 -7.700393 -42.857162
v 90.266693 -7.429718 -42.857162
v 89.996002 -6.776245 -42.857162
v 90.920166 -7.700394 -57.142868
v 90.266693 -7.429718 -57.142868
v 89.996002 -6.776246 -57.142868
v 90.920166 -7.700395 -71.428574
v 90.266693 -7.429719 -71.428574
v 89.996002 -6.776247 -71.428574
v 90.920166 -7.700397 -85.714310
v 90.266693 -7.429721 -85.714310
v 89.996002 -6.776248 -85.714310
v 90.920166 -7.700397 -100.000015
v 90.266693 -7.429722 -100.000015
v 89.996002 -6.776249 -100.000015
v 10.003998 -3.069796 -85.253159
v 10.003998 -2.608660 -85.714310
v 10.003998 -2.934741 -85.579239
v 89.996002 -3.069796 -85.253159
v 89.996002 -2.934741 -85.579239
v 89.996002 -2.608660 -85.714310
v 89.996002 -2.934740 -71.563644
v 89.996002 -3.069795 -71.889725
v 89.996002 -2.608660 -71.428574
v 10.003998 -3.069795 -71.889725
v 10.003998 -2.934740 -71.563644
v 10.003998 -2.608660 -71.428574
v 10.003998 -3.069794 -56.681717
v 10.003998 -2.608658 -57.142868
v 10.003998 -2.934739 -57.007797
v 89.996002 -3.069794 -56.681717
v 89.996002 -2.934739 -57.007797
v 89.996002 -2.608658 -57.142868
v 89.996002 -2.934738 -42.992203
v 89.996002 -3.069793 -43.318283
v 89.996002 -2.608657 -42.857162
v 10.003998 -3.069793 -43.318283
v 10.003998 -2.934738 -42.992203
v 10.003998 -2.608657 -42.857162
v 10.003998 -3.069792 -28.110306
v 10.003998 -2.608656 -28.571457
v 10.003998 -2.934736 -28.436386
v 89.996002 -3.069792 -28.110306
v 89.996002 -2.934736 -28.436386
v 89.996002 -2.608656 -28.571457
v 89.996002 -2.934736 -14.420792
v 89.996002 -3.069791 -14.746872
v 89.996002 -2.608655 -14.285721
v 10.003998 -3.069791 -14.746872
v 10.003998 -2.934736 -14.420792
v 10.003998 -2.608655 -14.285721
vn -0.0000 -0.0000 -1.0000
vn -0.0000 -0.0000 1.0000
vn -0.0000 1.0000 -0.0000
vn 1.0000 -0.0000 -0.0000
vn -1.0000 -0.0000 -0.0000
vn -0.0000 -1.0000 -0.0000
vn -0.0000 -1.0000 -0.0099
vn -0.0000 -1.0000 0.0099
vn -0.0000 -0.0000 -0.0000
vn -0.0000 -0.0302 -0.9995
vn -0.0000 -0.0302 0.9995
vn 0.0001 -0.0302 0.9995
vn 0.0042 -1.0000 -0.0000
vn 0.3827 -0.9239 -0.0000
vn 0.9239 -0.3827 -0.0000
vn 0.9995 -0.0302 -0.0000
vn 0.9995 -0.0302 -0.0001
vn -0.0042 -1.0000 -0.0000
vn -0.3827 -0.9239 -0.0000
vn -0.9239 -0.3827 -0.0000
vn -0.9995 -0.0302 -0.0000
vn -0.0000 -0.9239 -0.3827
vn -0.0000 -0.3827 -0.9239
vn -0.0000 -0.9239 0.3827
vn -0.0000 -0.3827 0.9239
vn -0.0000 -0.3826 0.9239
vt 0.375000 0.000000
vt 0.625000 0.000000
vt 0.625000 0.250000
vt 0.599990 0.250000
vt 0.400010 0.250000
vt 0.375000 0.250000
vt 0.375000 0.500000
vt 0.400010 0.500000
vt 0.599990 0.500000
vt 0.625000 0.500000
vt 0.625000 0.750000
vt 0.375000 0.750000
vt 0.625000 1.000000
vt 0.375000 1.000000
vt 0.875000 0.000000
vt 0.875000 0.250000
vt 0.125000 0.000000
vt 0.125000 0.250000
vt 0.400010 0.464286
vt 0.599990 0.464286
vt 0.599990 0.285714
vt 0.400010 0.285714
vt 0.400010 0.286867
vt 0.599990 0.286867
vt 0.599990 0.320276
vt 0.400010 0.320276
vt 0.400010 0.321429
vt 0.599990 0.321429
vt 0.599990 0.357143
vt 0.400010 0.357143
vt 0.400010 0.358296
vt 0.599990 0.358296
vt 0.599990 0.391704
vt 0.400010 0.391704
vt 0.400010 0.392857
vt 0.599990 0.392857
vt 0.599990 0.428571
vt 0.400010 0.428571
vt 0.400010 0.429724
vt 0.599990 0.429724
vt 0.599990 0.463133
vt 0.400010 0.463133
vt 0.397700 0.250000
vt 0.397702 0.285679
vt 0.602300 0.500000
vt 0.602300 0.464286
vt 0.397700 0.321422
vt 0.397701 0.357136
vt 0.397700 0.392856
vt 0.397700 0.428571
vt 0.397700 0.464286
vt 0.397700 0.500000
vt 0.602300 0.428578
vt 0.602302 0.392847
vt 0.602300 0.357145
vt 0.602300 0.321429
vt 0.602300 0.285714
vt 0.602300 0.250000
s 1
usemtl initialShadingGroup
f 1/1/1 2/2/1 4/3/1 10/4/1 9/5/1 3/6/1
f 5/7/2 12/8/2 11/9/2 6/10/2 8/11/2 7/12/2
f 7/12/3 8/11/3 2/13/3 1/14/3
f 2/2/4 8/15/4 6/16/4 4/3/4
f 7/17/5 1/1/5 3/6/5 5/18/5
f 23/19/6 24/20/6 11/9/6 12/8/6
f 9/5/6 10/4/6 14/21/6 13/22/6
f 89/23/7 92/24/7 96/25/8 98/26/8
f 15/27/6 16/28/6 18/29/6 17/30/6
f 101/31/7 104/32/7 108/33/8 110/34/8
f 19/35/6 20/36/6 22/37/6 21/38/6
f 113/39/7 116/40/7 120/41/8 122/42/8
f 5/7/5 3/6/5 25/6/5 26/7/5
f 4/3/4 6/10/4 28/10/4 27/3/4
s 0
f 13/22/2 14/21/2 30/21/2 29/22/2
f 14/21/9 16/28/9 31/28/9 30/21/9
f 16/28/2 15/27/2 32/27/2 31/28/2
f 15/27/9 13/22/9 29/22/9 32/27/9
f 17/30/2 18/29/2 34/29/2 33/30/2
f 18/29/9 20/36/9 35/36/9 34/29/9
f 20/36/2 19/35/2 36/35/2 35/36/2
f 19/35/9 17/30/9 33/30/9 36/35/9
f 21/38/2 22/37/2 38/37/2 37/38/2
f 22/37/9 24/20/9 39/20/9 38/37/9
f 24/20/2 23/19/2 40/19/2 39/20/2
f 23/19/9 21/38/9 37/38/9 40/19/9
s 1
f 29/22/1 30/21/1 94/21/10 90/22/10
f 31/28/2 32/27/2 100/27/11 97/28/11
f 33/30/1 34/29/1 106/29/10 102/30/10
f 35/36/2 36/35/2 112/35/12 109/36/11
f 37/38/1 38/37/1 118/37/10 114/38/10
f 39/20/2 40/19/2 124/19/11 121/20/11
f 42/43/13 41/5/14 45/22/14 44/44/13
f 41/5/15 43/5/16 46/22/17 45/22/15
f 65/45/18 67/9/19 69/20/19 68/46/18
f 67/9/20 66/9/21 70/20/21 69/20/20
f 25/6/6 42/43/13 44/44/13 47/47/13 50/48/13 53/49/13 56/50/13 59/51/13 62/52/13 26/7/6
f 65/45/18 68/46/18 71/53/18 74/54/18 77/55/18 80/56/18 83/57/18 86/58/18 27/3/6 28/10/6
f 9/5/4 13/22/4 46/22/17 43/5/16
f 13/22/4 15/27/4 49/27/16 46/22/17
f 15/27/4 17/30/4 52/30/16 49/27/16
f 17/30/4 19/35/4 55/35/16 52/30/16
f 19/35/4 21/38/4 58/38/16 55/35/16
f 21/38/4 23/19/4 61/19/16 58/38/16
f 23/19/4 12/8/4 64/8/17 61/19/16
f 11/9/5 24/20/5 70/20/21 66/9/21
f 24/20/5 22/37/5 73/37/21 70/20/21
f 22/37/5 20/36/5 76/36/21 73/37/21
f 20/36/5 18/29/5 79/29/21 76/36/21
f 18/29/5 16/28/5 82/28/21 79/29/21
f 16/28/5 14/21/5 85/21/21 82/28/21
f 14/21/5 10/4/5 88/4/21 85/21/21
f 41/5/1 42/43/1 25/6/1 3/6/1 9/5/1 43/5/1
f 12/8/2 5/7/2 26/7/2 62/52/2 63/8/2 64/8/2
f 65/45/2 28/10/2 6/10/2 11/9/2 66/9/2 67/9/2
f 10/4/1 4/3/1 27/3/1 86/58/1 87/4/1 88/4/1
f 44/44/13 45/22/14 48/27/14 47/47/13
f 45/22/15 46/22/17 49/27/16 48/27/15
f 47/47/13 48/27/14 51/30/14 50/48/13
f 48/27/15 49/27/16 52/30/16 51/30/15
f 50/48/13 51/30/14 54/35/14 53/49/13
f 51/30/15 52/30/16 55/35/16 54/35/15
f 53/49/13 54/35/14 57/38/14 56/50/13
f 54/35/15 55/35/16 58/38/16 57/38/15
f 56/50/13 57/38/14 60/19/14 59/51/13
f 57/38/15 58/38/16 61/19/16 60/19/15
f 59/51/13 60/19/14 63/8/14 62/52/13
f 60/19/15 61/19/16 64/8/17 63/8/15
f 68/46/18 69/20/19 72/37/19 71/53/18
f 69/20/20 70/20/21 73/37/21 72/37/20
f 71/53/18 72/37/19 75/36/19 74/54/18
f 72/37/20 73/37/21 76/36/21 75/36/20
f 74/54/18 75/36/19 78/29/19 77/55/18
f 75/36/20 76/36/21 79/29/21 78/29/20
f 77/55/18 78/29/19 81/28/19 80/56/18
f 78/29/20 79/29/21 82/28/21 81/28/20
f 80/56/18 81/28/19 84/21/19 83/57/18
f 81/28/20 82/28/21 85/21/21 84/21/20
f 83/57/18 84/21/19 87/4/19 86/58/18
f 84/21/20 85/21/21 88/4/21 87/4/20
f 89/23/7 91/22/22 93/21/22 92/24/7
f 91/22/23 90/22/10 94/21/10 93/21/23
f 96/25/8 95/28/24 99/27/24 98/26/8
f 95/28/25 97/28/11 100/27/11 99/27/25
f 101/31/7 103/30/22 105/29/22 104/32/7
f 103/30/23 102/30/10 106/29/10 105/29/23
f 108/33/8 107/36/24 111/35/24 110/34/8
f 107/36/26 109/36/11 112/35/12 111/35/26
f 113/39/7 115/38/22 117/37/22 116/40/7
f 115/38/23 114/38/10 118/37/10 117/37/23
f 120/41/8 119/20/24 123/19/24 122/42/8
f 119/20/25 121/20/11 124/19/11 123/19/25
f 95/28/4 96/25/4 92/24/4 93/21/4 94/21/4 30/21/4 31/28/4 97/28/4
f 32/27/5 29/22/5 90/22/5 91/22/5 89/23/5 98/26/5 99/27/5 100/27/5
f 107/36/4 108/33/4 104/32/4 105/29/4 106/29/4 34/29/4 35/36/4 109/36/4
f 36/35/5 33/30/5 102/30/5 103/30/5 101/31/5 110/34/5 111/35/5 112/35/5
f 119/20/4 120/41/4 116/40/4 117/37/4 118/37/4 38/37/4 39/20/4 121/20/4
f 40/19/5 37/38/5 114/38/5 115/38/5 113/39/5 122/42/5 123/19/5 124/19/5
