# Blender 4.3.1
# www.blender.org
mtllib ceiling 1 v2.mtl
o Ceiling1
v 0.000000 8.000042 -100.000000
v 100.000000 8.000042 -100.000000
v 0.000000 1.542080 -100.000000
v 100.000000 1.542080 -100.000000
v 0.000000 1.542087 -0.000000
v 100.000000 1.542087 -0.000000
v 0.000000 8.000050 -0.000001
v 100.000000 8.000050 -0.000001
v 10.003998 1.542080 -100.000000
v 89.996002 1.542080 -100.000000
v 89.996002 1.542087 -0.000000
v 10.003998 1.542087 -0.000000
v 10.003998 1.542081 -85.714294
v 89.996002 1.542081 -85.714294
v 10.003998 1.542082 -71.428589
v 89.996002 1.542082 -71.428589
v 10.003998 1.542083 -57.142822
v 89.996002 1.542083 -57.142883
v 10.003998 1.542084 -42.857117
v 89.996002 1.542084 -42.857117
v 10.003998 1.542085 -28.571472
v 89.996002 1.542085 -28.571472
v 10.003998 1.542086 -14.285706
v 89.996002 1.542086 -14.285706
v 0.000000 -7.700382 -100.000000
v 0.000000 -7.700375 0.000001
v 100.000000 -7.700382 -100.000000
v 100.000000 -7.700375 0.000001
v 10.003998 1.542081 -85.714294
v 89.996002 1.542081 -85.714294
v 89.996002 1.542082 -71.428589
v 10.003998 1.542082 -71.428589
v 10.003998 1.542083 -57.142822
v 89.996002 1.542083 -57.142883
v 89.996002 1.542084 -42.857117
v 10.003998 1.542084 -42.857117
v 10.003998 1.542085 -28.571472
v 89.996002 1.542085 -28.571472
v 89.996002 1.542086 -14.285706
v 10.003998 1.542086 -14.285706
v 9.733322 -7.429707 -100.000000
v 9.079849 -7.700382 -100.000000
v 10.003998 -6.776234 -100.000000
v 9.079849 -7.700381 -85.714294
v 9.733322 -7.429706 -85.714294
v 10.003998 -6.776233 -85.714294
v 9.079849 -7.700380 -71.428589
v 9.733322 -7.429704 -71.428589
v 10.003998 -6.776231 -71.428589
v 9.079849 -7.700379 -57.142822
v 9.733322 -7.429703 -57.142822
v 10.003998 -6.776230 -57.142822
v 9.079849 -7.700378 -42.857117
v 9.733322 -7.429702 -42.857117
v 10.003998 -6.776229 -42.857117
v 9.079849 -7.700377 -28.571472
v 9.733322 -7.429701 -28.571472
v 10.003998 -6.776228 -28.571472
v 9.079849 -7.700376 -14.285705
v 9.733322 -7.429700 -14.285705
v 10.003998 -6.776227 -14.285705
v 9.079849 -7.700375 0.000001
v 9.733322 -7.429699 0.000001
v 10.003998 -6.776226 0.000001
v 90.920166 -7.700375 0.000001
v 89.996002 -6.776226 0.000001
v 90.266693 -7.429699 0.000001
v 90.920166 -7.700376 -14.285705
v 90.266693 -7.429700 -14.285705
v 89.996002 -6.776227 -14.285705
v 90.920166 -7.700377 -28.571472
v 90.266693 -7.429701 -28.571472
v 89.996002 -6.776228 -28.571472
v 90.920166 -7.700378 -42.857117
v 90.266693 -7.429702 -42.857117
v 89.996002 -6.776229 -42.857117
v 90.920166 -7.700379 -57.142883
v 90.266693 -7.429703 -57.142883
v 89.996002 -6.776230 -57.142883
v 90.920166 -7.700380 -71.428589
v 90.266693 -7.429704 -71.428589
v 89.996002 -6.776231 -71.428589
v 90.920166 -7.700381 -85.714294
v 90.266693 -7.429706 -85.714294
v 89.996002 -6.776233 -85.714294
v 90.920166 -7.700382 -100.000000
v 90.266693 -7.429707 -100.000000
v 89.996002 -6.776234 -100.000000
v 10.003998 -2.859190 -13.845642
v 10.003998 -2.419111 -14.285706
v 10.003998 -2.730283 -14.156799
v 89.996002 -2.859190 -13.845642
v 89.996002 -2.730283 -14.156799
v 89.996002 -2.419111 -14.285706
v 89.996002 -2.730282 -0.128906
v 89.996002 -2.859189 -0.440063
v 89.996002 -2.419110 0.000000
v 10.003998 -2.859189 -0.440063
v 10.003998 -2.730282 -0.128906
v 10.003998 -2.419110 0.000000
v 89.996002 -2.859196 -99.559906
v 89.996002 -2.730290 -99.871094
v 89.996002 -2.419117 -100.000000
v 10.003998 -2.859196 -99.559906
v 10.003998 -2.419117 -100.000000
v 10.003998 -2.730290 -99.871094
v 89.996002 -2.730289 -85.843201
v 89.996002 -2.859195 -86.154358
v 89.996002 -2.419116 -85.714294
v 10.003998 -2.859195 -86.154358
v 10.003998 -2.730289 -85.843201
v 10.003998 -2.419116 -85.714294
v 10.003998 -2.859194 -70.988464
v 10.003998 -2.419115 -71.428589
v 10.003998 -2.730288 -71.299683
v 89.996002 -2.859194 -70.988464
v 89.996002 -2.730288 -71.299683
v 89.996002 -2.419115 -71.428589
v 89.996002 -2.730287 -57.271729
v 89.996002 -2.859193 -57.582947
v 89.996002 -2.419114 -57.142883
v 10.003998 -2.859193 -57.582947
v 10.003998 -2.730287 -57.271729
v 10.003998 -2.419114 -57.142822
v 10.003998 -2.859192 -42.417053
v 10.003998 -2.419113 -42.857117
v 10.003998 -2.730286 -42.728210
v 89.996002 -2.859192 -42.417053
v 89.996002 -2.730286 -42.728210
v 89.996002 -2.419113 -42.857117
v 89.996002 -2.730284 -28.700317
v 89.996002 -2.859191 -29.011536
v 89.996002 -2.419112 -28.571472
v 10.003998 -2.859191 -29.011536
v 10.003998 -2.730284 -28.700317
v 10.003998 -2.419112 -28.571472
vn -0.0000 -0.0000 -1.0000
vn -0.0000 -0.0000 1.0000
vn -0.0000 1.0000 -0.0000
vn 1.0000 -0.0000 -0.0000
vn -1.0000 -0.0000 -0.0000
vn -0.0000 -1.0000 -0.0094
vn -0.0000 -1.0000 0.0094
vn 0.0001 -1.0000 -0.0095
vn -0.0000 -1.0000 -0.0095
vn -0.0000 -1.0000 -0.0000
vn -0.0001 -1.0000 -0.0094
vn 0.0001 -1.0000 0.0094
vn -0.0000 -0.0000 -0.0000
vn -0.0001 -0.0302 -0.9995
vn -0.0000 -0.0302 -0.9995
vn 0.0001 -0.0302 0.9995
vn -0.0000 -0.0302 0.9995
vn -0.0001 -0.0302 0.9995
vn 0.0042 -1.0000 -0.0000
vn 0.3827 -0.9239 -0.0000
vn 0.9239 -0.3827 -0.0000
vn 0.9995 -0.0302 -0.0000
vn -0.0042 -1.0000 -0.0000
vn -0.3827 -0.9239 -0.0000
vn -0.9239 -0.3827 -0.0000
vn -0.9995 -0.0302 -0.0000
vn 0.9995 -0.0302 -0.0001
vn -0.0000 -0.9239 -0.3827
vn -0.0000 -0.3827 -0.9239
vn -0.0000 -0.9239 0.3827
vn -0.0000 -0.3827 0.9239
vn -0.0000 -0.3826 0.9239
vt 0.375000 0.000000
vt 0.625000 0.000000
vt 0.625000 0.250000
vt 0.599990 0.250000
vt 0.400010 0.250000
vt 0.375000 0.250000
vt 0.375000 0.500000
vt 0.400010 0.500000
vt 0.599990 0.500000
vt 0.625000 0.500000
vt 0.625000 0.750000
vt 0.375000 0.750000
vt 0.625000 1.000000
vt 0.375000 1.000000
vt 0.875000 0.000000
vt 0.875000 0.250000
vt 0.125000 0.000000
vt 0.125000 0.250000
vt 0.400010 0.465386
vt 0.599990 0.465386
vt 0.599990 0.498900
vt 0.400010 0.498900
vt 0.400010 0.251100
vt 0.599990 0.251100
vt 0.599990 0.284614
vt 0.400010 0.284614
vt 0.400010 0.285714
vt 0.599990 0.285714
vt 0.599990 0.321429
vt 0.400010 0.321429
vt 0.400010 0.322529
vt 0.599990 0.322529
vt 0.599990 0.356043
vt 0.400010 0.356043
vt 0.400010 0.357143
vt 0.599990 0.357143
vt 0.599990 0.392857
vt 0.400010 0.392857
vt 0.400010 0.393957
vt 0.599990 0.393957
vt 0.599990 0.427471
vt 0.400010 0.427471
vt 0.400010 0.428571
vt 0.599990 0.428571
vt 0.599990 0.464286
vt 0.400010 0.464286
vt 0.397700 0.250000
vt 0.397702 0.285679
vt 0.602300 0.500000
vt 0.602300 0.464286
vt 0.397700 0.321422
vt 0.397701 0.357136
vt 0.397699 0.392860
vt 0.397699 0.428572
vt 0.397700 0.464286
vt 0.397700 0.500000
vt 0.602300 0.428578
vt 0.602299 0.392864
vt 0.602300 0.357145
vt 0.602301 0.321428
vt 0.602300 0.285714
vt 0.602300 0.250000
s 1
usemtl initialShadingGroup
f 1/1/1 2/2/1 4/3/1 10/4/1 9/5/1 3/6/1
f 5/7/2 12/8/2 11/9/2 6/10/2 8/11/2 7/12/2
f 7/12/3 8/11/3 2/13/3 1/14/3
f 2/2/4 8/15/4 6/16/4 4/3/4
f 7/17/5 1/1/5 3/6/5 5/18/5
f 89/19/6 92/20/6 96/21/7 98/22/7
f 104/23/8 101/24/9 108/25/7 110/26/7
f 29/27/10 30/28/10 31/29/10 32/30/10
f 113/31/11 116/32/6 120/33/12 122/34/7
f 33/35/10 34/36/10 35/37/10 36/38/10
f 125/39/6 128/40/6 132/41/12 134/42/7
f 37/43/10 38/44/10 39/45/10 40/46/10
f 5/7/5 3/6/5 25/6/5 26/7/5
f 4/3/4 6/10/4 28/10/4 27/3/4
s 0
f 13/27/2 14/28/2 30/28/2 29/27/2
f 14/28/13 16/29/13 31/29/13 30/28/13
f 16/29/2 15/30/2 32/30/2 31/29/2
f 15/30/13 13/27/13 29/27/13 32/30/13
f 17/35/2 18/36/2 34/36/2 33/35/2
f 18/36/13 20/37/13 35/37/13 34/36/13
f 20/37/2 19/38/2 36/38/2 35/37/2
f 19/38/13 17/35/13 33/35/13 36/38/13
f 21/43/2 22/44/2 38/44/2 37/43/2
f 22/44/13 24/45/13 39/45/13 38/44/13
f 24/45/2 23/46/2 40/46/2 39/45/2
f 23/46/13 21/43/13 37/43/13 40/46/13
s 1
f 23/46/1 24/45/1 94/45/14 90/46/15
f 11/9/2 12/8/2 100/8/16 97/9/17
f 9/5/1 10/4/1 103/4/14 105/5/15
f 14/28/2 13/27/2 112/27/16 109/28/17
f 15/30/1 16/29/1 118/29/14 114/30/15
f 18/36/2 17/35/2 124/35/18 121/36/17
f 19/38/1 20/37/1 130/37/14 126/38/15
f 22/44/2 21/43/2 136/43/17 133/44/17
f 42/47/19 41/5/20 45/27/20 44/48/19
f 41/5/21 43/5/22 46/27/22 45/27/21
f 65/49/23 67/9/24 69/45/24 68/50/23
f 67/9/25 66/9/26 70/45/26 69/45/25
f 25/6/10 42/47/19 44/48/19 47/51/19 50/52/19 53/53/19 56/54/19 59/55/19 62/56/19 26/7/10
f 65/49/23 68/50/23 71/57/23 74/58/23 77/59/23 80/60/23 83/61/23 86/62/23 27/3/10 28/10/10
f 9/5/4 13/27/4 46/27/22 43/5/22
f 13/27/4 15/30/4 49/30/22 46/27/22
f 15/30/4 17/35/4 52/35/22 49/30/22
f 17/35/4 19/38/4 55/38/22 52/35/22
f 19/38/4 21/43/4 58/43/22 55/38/22
f 21/43/4 23/46/4 61/46/22 58/43/22
f 23/46/4 12/8/4 64/8/27 61/46/22
f 11/9/5 24/45/5 70/45/26 66/9/26
f 24/45/5 22/44/5 73/44/26 70/45/26
f 22/44/5 20/37/5 76/37/26 73/44/26
f 20/37/5 18/36/5 79/36/26 76/37/26
f 18/36/5 16/29/5 82/29/26 79/36/26
f 16/29/5 14/28/5 85/28/26 82/29/26
f 14/28/5 10/4/5 88/4/26 85/28/26
f 41/5/1 42/47/1 25/6/1 3/6/1 9/5/1 43/5/1
f 12/8/2 5/7/2 26/7/2 62/56/2 63/8/2 64/8/2
f 65/49/2 28/10/2 6/10/2 11/9/2 66/9/2 67/9/2
f 10/4/1 4/3/1 27/3/1 86/62/1 87/4/1 88/4/1
f 44/48/19 45/27/20 48/30/20 47/51/19
f 45/27/21 46/27/22 49/30/22 48/30/21
f 47/51/19 48/30/20 51/35/20 50/52/19
f 48/30/21 49/30/22 52/35/22 51/35/21
f 50/52/19 51/35/20 54/38/20 53/53/19
f 51/35/21 52/35/22 55/38/22 54/38/21
f 53/53/19 54/38/20 57/43/20 56/54/19
f 54/38/21 55/38/22 58/43/22 57/43/21
f 56/54/19 57/43/20 60/46/20 59/55/19
f 57/43/21 58/43/22 61/46/22 60/46/21
f 59/55/19 60/46/20 63/8/20 62/56/19
f 60/46/21 61/46/22 64/8/27 63/8/21
f 68/50/23 69/45/24 72/44/24 71/57/23
f 69/45/25 70/45/26 73/44/26 72/44/25
f 71/57/23 72/44/24 75/37/24 74/58/23
f 72/44/25 73/44/26 76/37/26 75/37/25
f 74/58/23 75/37/24 78/36/24 77/59/23
f 75/37/25 76/37/26 79/36/26 78/36/25
f 77/59/23 78/36/24 81/29/24 80/60/23
f 78/36/25 79/36/26 82/29/26 81/29/25
f 80/60/23 81/29/24 84/28/24 83/61/23
f 81/29/25 82/29/26 85/28/26 84/28/25
f 83/61/23 84/28/24 87/4/24 86/62/23
f 84/28/25 85/28/26 88/4/26 87/4/25
f 89/19/6 91/46/28 93/45/28 92/20/6
f 91/46/29 90/46/15 94/45/14 93/45/29
f 96/21/7 95/9/30 99/8/30 98/22/7
f 95/9/31 97/9/17 100/8/16 99/8/31
f 103/4/14 102/4/29 106/5/29 105/5/15
f 102/4/28 101/24/9 104/23/8 106/5/28
f 108/25/7 107/28/30 111/27/30 110/26/7
f 107/28/31 109/28/17 112/27/16 111/27/31
f 113/31/11 115/30/28 117/29/28 116/32/6
f 115/30/29 114/30/15 118/29/14 117/29/29
f 120/33/12 119/36/30 123/35/30 122/34/7
f 119/36/32 121/36/17 124/35/18 123/35/32
f 125/39/6 127/38/28 129/37/28 128/40/6
f 127/38/29 126/38/15 130/37/14 129/37/29
f 132/41/12 131/44/30 135/43/30 134/42/7
f 131/44/32 133/44/17 136/43/17 135/43/32
f 95/9/4 96/21/4 92/20/4 93/45/4 94/45/4 24/45/4 11/9/4 97/9/4
f 12/8/5 23/46/5 90/46/5 91/46/5 89/19/5 98/22/5 99/8/5 100/8/5
f 107/28/4 108/25/4 101/24/4 102/4/4 103/4/4 10/4/4 14/28/4 109/28/4
f 13/27/5 9/5/5 105/5/5 106/5/5 104/23/5 110/26/5 111/27/5 112/27/5
f 119/36/4 120/33/4 116/32/4 117/29/4 118/29/4 16/29/4 18/36/4 121/36/4
f 17/35/5 15/30/5 114/30/5 115/30/5 113/31/5 122/34/5 123/35/5 124/35/5
f 131/44/4 132/41/4 128/40/4 129/37/4 130/37/4 20/37/4 22/44/4 133/44/4
f 21/43/5 19/38/5 126/38/5 127/38/5 125/39/5 134/42/5 135/43/5 136/43/5
