# This file uses meters as units for non-parametric coordinates.

mtllib Ceiling1.mtl
g default
v 99.999998 200.000001 499.999996
v 199.999998 200.000001 499.999996
v 99.999998 193.542031 499.999996
v 199.999998 193.542031 499.999996
v 99.999998 193.542031 599.999996
v 199.999998 193.542031 599.999996
v 99.999998 200.000001 599.999996
v 199.999998 200.000001 599.999996
v 110.003996 193.542031 499.999996
v 189.996000 193.542031 499.999996
v 189.996000 193.542031 599.999996
v 110.003996 193.542031 599.999996
v 110.003996 193.542031 514.285694
v 189.996000 193.542031 514.285694
v 110.003996 193.542031 528.571438
v 189.996000 193.542031 528.571438
v 110.003996 193.542031 542.857151
v 189.996000 193.542031 542.857144
v 110.003996 193.542031 557.142865
v 189.996000 193.542031 557.142865
v 110.003996 193.542031 571.428555
v 189.996000 193.542031 571.428555
v 110.003996 193.542031 585.714276
v 189.996000 193.542031 585.714276
v 99.999998 184.299576 499.999996
v 99.999998 184.299576 599.999996
v 199.999998 184.299576 499.999996
v 199.999998 184.299576 599.999996
v 110.003996 193.542031 514.285694
v 189.996000 193.542031 514.285694
v 189.996000 193.542031 528.571438
v 110.003996 193.542031 528.571438
v 110.003996 193.542031 542.857151
v 189.996000 193.542031 542.857144
v 189.996000 193.542031 557.142865
v 110.003996 193.542031 557.142865
v 110.003996 193.542031 571.428555
v 189.996000 193.542031 571.428555
v 189.996000 193.542031 585.714276
v 110.003996 193.542031 585.714276
v 109.733320 184.570256 499.999996
v 109.079847 184.299576 499.999996
v 110.003996 185.223729 499.999996
v 109.079847 184.299576 514.285694
v 109.733320 184.570256 514.285694
v 110.003996 185.223729 514.285694
v 109.079847 184.299576 528.571438
v 109.733320 184.570256 528.571438
v 110.003996 185.223729 528.571438
v 109.079847 184.299576 542.857151
v 109.733320 184.570256 542.857151
v 110.003996 185.223729 542.857151
v 109.079847 184.299576 557.142865
v 109.733320 184.570256 557.142865
v 110.003996 185.223729 557.142865
v 109.079847 184.299576 571.428555
v 109.733320 184.570256 571.428555
v 110.003996 185.223729 571.428555
v 109.079847 184.299576 585.714276
v 109.733320 184.570256 585.714276
v 110.003996 185.223729 585.714276
v 109.079847 184.299576 599.999996
v 109.733320 184.570256 599.999996
v 110.003996 185.223729 599.999996
v 190.920164 184.299576 599.999996
v 189.996000 185.223729 599.999996
v 190.266691 184.570256 599.999996
v 190.920164 184.299576 585.714276
v 190.266691 184.570256 585.714276
v 189.996000 185.223729 585.714276
v 190.920164 184.299576 571.428555
v 190.266691 184.570256 571.428555
v 189.996000 185.223729 571.428555
v 190.920164 184.299576 557.142865
v 190.266691 184.570256 557.142865
v 189.996000 185.223729 557.142865
v 190.920164 184.299576 542.857144
v 190.266691 184.570256 542.857144
v 189.996000 185.223729 542.857144
v 190.920164 184.299576 528.571438
v 190.266691 184.570256 528.571438
v 189.996000 185.223729 528.571438
v 190.920164 184.299576 514.285694
v 190.266691 184.570256 514.285694
v 189.996000 185.223729 514.285694
v 190.920164 184.299576 499.999996
v 190.266691 184.570256 499.999996
v 189.996000 185.223729 499.999996
v 110.003996 189.140763 586.154362
v 110.003996 189.580845 585.714276
v 110.003996 189.269662 585.843174
v 189.996000 189.140763 586.154362
v 189.996000 189.269662 585.843174
v 189.996000 189.580845 585.714276
v 189.996000 189.269662 599.871098
v 189.996000 189.140763 599.559910
v 189.996000 189.580845 599.999996
v 110.003996 189.140763 599.559910
v 110.003996 189.269662 599.871098
v 110.003996 189.580845 599.999996
v 189.996000 189.140763 500.440079
v 189.996000 189.269662 500.128895
v 189.996000 189.580845 499.999996
v 110.003996 189.140763 500.440079
v 110.003996 189.580845 499.999996
v 110.003996 189.269662 500.128895
v 189.996000 189.269662 514.156796
v 189.996000 189.140763 513.845612
v 189.996000 189.580845 514.285694
v 110.003996 189.140763 513.845612
v 110.003996 189.269662 514.156796
v 110.003996 189.580845 514.285694
v 110.003996 189.140763 529.011521
v 110.003996 189.580845 528.571438
v 110.003996 189.269662 528.700337
v 189.996000 189.140763 529.011521
v 189.996000 189.269662 528.700337
v 189.996000 189.580845 528.571438
v 189.996000 189.269662 542.728245
v 189.996000 189.140763 542.417057
v 189.996000 189.580845 542.857144
v 110.003996 189.140763 542.417065
v 110.003996 189.269662 542.728253
v 110.003996 189.580845 542.857151
v 110.003996 189.140763 557.582951
v 110.003996 189.580845 557.142865
v 110.003996 189.269662 557.271763
v 189.996000 189.140763 557.582951
v 189.996000 189.269662 557.271763
v 189.996000 189.580845 557.142865
v 189.996000 189.269662 571.299656
v 189.996000 189.140763 570.988468
v 189.996000 189.580845 571.428555
v 110.003996 189.140763 570.988468
v 110.003996 189.269662 571.299656
v 110.003996 189.580845 571.428555
vt 0.625000 0.000000
vt 0.375000 0.250000
vt 0.625000 0.750000
vt 0.375000 1.000000
vt 0.625000 1.000000
vt 0.875000 0.000000
vt 0.875000 0.250000
vt 0.125000 0.000000
vt 0.125000 0.250000
vt 0.375000 0.000000
vt 0.375000 0.750000
vt 0.625000 0.500000
vt 0.375000 0.250000
vt 0.400010 0.285714
vt 0.599990 0.285714
vt 0.599990 0.321429
vt 0.400010 0.321429
vt 0.400010 0.357143
vt 0.599990 0.357143
vt 0.599990 0.392857
vt 0.400010 0.392857
vt 0.400010 0.428571
vt 0.599990 0.428571
vt 0.599990 0.464286
vt 0.400010 0.464286
vt 0.400010 0.250000
vt 0.599990 0.500000
vt 0.397700 0.250000
vt 0.397702 0.285679
vt 0.397700 0.321422
vt 0.397701 0.357136
vt 0.397699 0.392860
vt 0.397699 0.428572
vt 0.397700 0.464286
vt 0.375000 0.500000
vt 0.602300 0.500000
vt 0.602300 0.464286
vt 0.602300 0.428578
vt 0.602299 0.392864
vt 0.602300 0.357145
vt 0.602301 0.321428
vt 0.602300 0.285714
vt 0.625000 0.500000
vt 0.400010 0.285714
vt 0.400010 0.321429
vt 0.400010 0.285714
vt 0.400010 0.357143
vt 0.400010 0.321429
vt 0.400010 0.392857
vt 0.400010 0.357143
vt 0.400010 0.428571
vt 0.400010 0.392857
vt 0.400010 0.464286
vt 0.400010 0.428571
vt 0.400010 0.464286
vt 0.599990 0.464286
vt 0.599990 0.428571
vt 0.599990 0.464286
vt 0.599990 0.392857
vt 0.599990 0.428571
vt 0.599990 0.357143
vt 0.599990 0.392857
vt 0.599990 0.321429
vt 0.599990 0.357143
vt 0.599990 0.285714
vt 0.599990 0.321429
vt 0.599990 0.285714
vt 0.375000 0.500000
vt 0.625000 0.250000
vt 0.625000 0.250000
vt 0.397700 0.500000
vt 0.400010 0.500000
vt 0.602300 0.250000
vt 0.599990 0.250000
vt 0.400010 0.250000
vt 0.400010 0.285714
vt 0.400010 0.321429
vt 0.400010 0.357143
vt 0.400010 0.392857
vt 0.400010 0.428571
vt 0.400010 0.464286
vt 0.400010 0.500000
vt 0.599990 0.500000
vt 0.599990 0.464286
vt 0.599990 0.428571
vt 0.599990 0.392857
vt 0.599990 0.357143
vt 0.599990 0.321429
vt 0.599990 0.285714
vt 0.599990 0.250000
vt 0.400010 0.500000
vt 0.599990 0.250000
vt 0.400010 0.465386
vt 0.599990 0.464286
vt 0.599990 0.498900
vt 0.400010 0.500000
vt 0.599990 0.250000
vt 0.400010 0.251100
vt 0.599990 0.284614
vt 0.400010 0.285714
vt 0.400010 0.322529
vt 0.599990 0.321429
vt 0.599990 0.356043
vt 0.400010 0.357143
vt 0.400010 0.393957
vt 0.599990 0.392857
vt 0.599990 0.427471
vt 0.400010 0.428571
vt 0.599990 0.465386
vt 0.599990 0.500000
vt 0.599990 0.500000
vt 0.400010 0.464286
vt 0.400010 0.498900
vt 0.599990 0.251100
vt 0.599990 0.285714
vt 0.400010 0.250000
vt 0.400010 0.250000
vt 0.400010 0.284614
vt 0.599990 0.322529
vt 0.599990 0.357143
vt 0.400010 0.321429
vt 0.400010 0.356043
vt 0.599990 0.393957
vt 0.599990 0.428571
vt 0.400010 0.392857
vt 0.400010 0.427471
vt 0.400010 0.464286
vt 0.599990 0.464286
vt 0.599990 0.500000
vt 0.400010 0.500000
vt 0.599990 0.250000
vt 0.400010 0.250000
vt 0.599990 0.285714
vt 0.400010 0.285714
vt 0.400010 0.321429
vt 0.599990 0.321429
vt 0.599990 0.357143
vt 0.400010 0.357143
vt 0.400010 0.392857
vt 0.599990 0.392857
vt 0.599990 0.428571
vt 0.400010 0.428571
vn 0.000000 -0.000000 -1.000000
vn 0.000000 -0.000000 -1.000000
vn -0.000000 -0.000000 -1.000000
vn -0.000000 -0.000000 -1.000000
vn 0.000000 -0.000000 -1.000000
vn 0.000000 -0.000000 -1.000000
vn 0.000000 0.000000 1.000000
vn 0.000000 0.000000 1.000000
vn -0.000000 0.000000 1.000000
vn -0.000000 0.000000 1.000000
vn 0.000000 0.000000 1.000000
vn 0.000000 0.000000 1.000000
vn 0.000000 1.000000 -0.000000
vn 0.000000 1.000000 -0.000000
vn 0.000000 1.000000 -0.000000
vn 0.000000 1.000000 -0.000000
vn 1.000000 -0.000000 0.000000
vn 1.000000 -0.000000 0.000000
vn 1.000000 -0.000000 0.000000
vn 1.000000 -0.000000 0.000000
vn -1.000000 0.000000 0.000000
vn -1.000000 0.000000 0.000000
vn -1.000000 0.000000 0.000000
vn -1.000000 0.000000 0.000000
vn 0.000000 -0.999956 -0.009397
vn 0.000000 -0.999956 -0.009397
vn 0.000000 -0.999956 0.009397
vn 0.000000 -0.999956 0.009397
vn 0.000000 -0.999956 -0.009397
vn 0.000000 -0.999956 -0.009397
vn 0.000000 -0.999956 0.009397
vn 0.000000 -0.999956 0.009397
vn 0.000000 -1.000000 0.000000
vn 0.000000 -1.000000 0.000000
vn 0.000000 -1.000000 0.000000
vn 0.000000 -1.000000 0.000000
vn 0.000000 -0.999956 -0.009397
vn 0.000000 -0.999956 -0.009397
vn 0.000000 -0.999956 0.009397
vn 0.000000 -0.999956 0.009397
vn 0.000000 -1.000000 0.000000
vn 0.000000 -1.000000 0.000000
vn 0.000000 -1.000000 0.000000
vn 0.000000 -1.000000 0.000000
vn 0.000000 -0.999956 -0.009397
vn 0.000000 -0.999956 -0.009397
vn 0.000000 -0.999956 0.009397
vn 0.000000 -0.999956 0.009397
vn 0.000000 -1.000000 0.000000
vn 0.000000 -1.000000 0.000000
vn 0.000000 -1.000000 0.000000
vn 0.000000 -1.000000 0.000000
vn -1.000000 0.000000 0.000000
vn -1.000000 0.000000 0.000000
vn -1.000000 0.000000 0.000000
vn -1.000000 0.000000 0.000000
vn 1.000000 -0.000000 0.000000
vn 1.000000 -0.000000 0.000000
vn 1.000000 -0.000000 0.000000
vn 1.000000 -0.000000 0.000000
vn 0.000000 -0.000000 0.000000
vn 0.000000 -0.000000 0.000000
vn 0.000000 -0.000000 0.000000
vn 0.000000 -0.000000 0.000000
vn 0.000000 -0.000000 0.000000
vn 0.000000 -0.000000 0.000000
vn 0.000000 -0.000000 0.000000
vn 0.000000 -0.000000 0.000000
vn 0.000000 -0.000000 0.000000
vn 0.000000 -0.000000 0.000000
vn 0.000000 -0.000000 0.000000
vn 0.000000 -0.000000 0.000000
vn 0.000000 -0.000000 0.000000
vn 0.000000 -0.000000 0.000000
vn 0.000000 -0.000000 0.000000
vn 0.000000 -0.000000 0.000000
vn 0.000000 -0.000000 0.000000
vn 0.000000 -0.000000 0.000000
vn 0.000000 -0.000000 0.000000
vn 0.000000 -0.000000 0.000000
vn 0.000000 -0.000000 0.000000
vn 0.000000 -0.000000 0.000000
vn 0.000000 -0.000000 0.000000
vn 0.000000 -0.000000 0.000000
vn 0.000000 -0.000000 0.000000
vn 0.000000 -0.000000 0.000000
vn 0.000000 -0.000000 0.000000
vn 0.000000 -0.000000 0.000000
vn 0.000000 -0.000000 0.000000
vn 0.000000 -0.000000 0.000000
vn 0.000000 -0.000000 0.000000
vn 0.000000 -0.000000 0.000000
vn 0.000000 -0.000000 0.000000
vn 0.000000 -0.000000 0.000000
vn 0.000000 -0.000000 0.000000
vn 0.000000 -0.000000 0.000000
vn 0.000000 -0.000000 0.000000
vn 0.000000 -0.000000 0.000000
vn 0.000000 -0.000000 0.000000
vn 0.000000 -0.000000 0.000000
vn 0.000000 -0.000000 0.000000
vn 0.000000 -0.000000 0.000000
vn 0.000000 -0.000000 0.000000
vn 0.000000 -0.000000 0.000000
vn 0.000000 -0.000000 0.000000
vn 0.000000 -0.000000 0.000000
vn 0.000000 -0.000000 0.000000
vn 0.000000 -0.000000 0.000000
vn 0.000000 -0.000000 -1.000000
vn 0.000000 -0.000000 -1.000000
vn 0.000000 -0.030157 -0.999545
vn 0.000000 -0.030157 -0.999545
vn 0.000000 0.000000 1.000000
vn 0.000000 0.000000 1.000000
vn 0.000000 -0.030157 0.999545
vn 0.000000 -0.030157 0.999545
vn 0.000000 -0.000000 -1.000000
vn 0.000000 -0.000000 -1.000000
vn 0.000000 -0.030157 -0.999545
vn 0.000000 -0.030157 -0.999545
vn 0.000000 0.000000 1.000000
vn 0.000000 0.000000 1.000000
vn 0.000000 -0.030157 0.999545
vn 0.000000 -0.030157 0.999545
vn 0.000000 -0.000000 -1.000000
vn 0.000000 -0.000000 -1.000000
vn 0.000000 -0.030157 -0.999545
vn 0.000000 -0.030157 -0.999545
vn 0.000000 0.000000 1.000000
vn 0.000000 0.000000 1.000000
vn 0.000000 -0.030157 0.999545
vn 0.000000 -0.030157 0.999545
vn 0.000000 -0.000000 -1.000000
vn 0.000000 -0.000000 -1.000000
vn 0.000000 -0.030157 -0.999545
vn 0.000000 -0.030157 -0.999545
vn 0.000000 0.000000 1.000000
vn 0.000000 0.000000 1.000000
vn 0.000000 -0.030157 0.999545
vn 0.000000 -0.030157 0.999545
vn 0.004215 -0.999991 0.000000
vn 0.382686 -0.923879 0.000000
vn 0.382686 -0.923878 0.000000
vn 0.004215 -0.999991 0.000000
vn 0.923879 -0.382684 0.000000
vn 0.999545 -0.030156 0.000000
vn 0.999545 -0.030156 0.000000
vn 0.923880 -0.382683 0.000000
vn -0.004215 -0.999991 0.000000
vn -0.382684 -0.923879 0.000000
vn -0.382684 -0.923879 0.000000
vn -0.004215 -0.999991 0.000000
vn -0.923873 -0.382699 0.000000
vn -0.999545 -0.030158 0.000000
vn -0.999545 -0.030158 0.000000
vn -0.923873 -0.382699 0.000000
vn 0.000000 -1.000000 0.000000
vn 0.004216 -0.999991 0.000000
vn 0.004215 -0.999991 0.000000
vn 0.004216 -0.999991 0.000000
vn 0.004215 -0.999991 0.000000
vn 0.004215 -0.999991 0.000000
vn 0.004215 -0.999991 0.000000
vn 0.000000 -1.000000 0.000000
vn -0.004215 -0.999991 0.000000
vn -0.004215 -0.999991 0.000000
vn -0.004215 -0.999991 0.000000
vn -0.004215 -0.999991 0.000000
vn -0.004215 -0.999991 0.000000
vn -0.004215 -0.999991 0.000000
vn 0.000000 -1.000000 0.000000
vn 0.000000 -1.000000 0.000000
vn 1.000000 -0.000000 0.000000
vn 1.000000 -0.000000 0.000000
vn 1.000000 -0.000000 0.000000
vn 0.999545 -0.030156 0.000000
vn 1.000000 -0.000000 0.000000
vn 0.999545 -0.030156 0.000000
vn 1.000000 -0.000000 0.000000
vn 0.999545 -0.030156 0.000000
vn 1.000000 -0.000000 0.000000
vn 0.999545 -0.030156 0.000000
vn 1.000000 -0.000000 0.000000
vn 0.999545 -0.030156 0.000000
vn 1.000000 -0.000000 0.000000
vn 0.999545 -0.030156 0.000000
vn -1.000000 0.000000 0.000000
vn -1.000000 0.000000 0.000000
vn -1.000000 0.000000 0.000000
vn -0.999545 -0.030158 0.000000
vn -1.000000 0.000000 0.000000
vn -0.999545 -0.030158 0.000000
vn -1.000000 0.000000 0.000000
vn -0.999545 -0.030158 0.000000
vn -1.000000 0.000000 0.000000
vn -0.999545 -0.030158 0.000000
vn -1.000000 0.000000 0.000000
vn -0.999545 -0.030158 0.000000
vn -1.000000 0.000000 0.000000
vn -0.999545 -0.030158 0.000000
vn 0.000000 -0.000000 -1.000000
vn 0.000000 -0.000000 -1.000000
vn 0.000000 -0.000000 -1.000000
vn 0.000000 -0.000000 -1.000000
vn 0.000000 0.000000 1.000000
vn 0.000000 0.000000 1.000000
vn 0.000000 0.000000 1.000000
vn 0.000000 0.000000 1.000000
vn -0.000000 0.000000 1.000000
vn -0.000000 0.000000 1.000000
vn -0.000000 0.000000 1.000000
vn -0.000000 0.000000 1.000000
vn -0.000000 -0.000000 -1.000000
vn -0.000000 -0.000000 -1.000000
vn -0.000000 -0.000000 -1.000000
vn -0.000000 -0.000000 -1.000000
vn 0.382686 -0.923878 0.000000
vn 0.923880 -0.382683 0.000000
vn 0.382686 -0.923879 0.000000
vn 0.923879 -0.382684 0.000000
vn 0.382687 -0.923878 0.000000
vn 0.923879 -0.382684 0.000000
vn 0.382687 -0.923878 0.000000
vn 0.923879 -0.382684 0.000000
vn 0.382686 -0.923878 0.000000
vn 0.923880 -0.382683 0.000000
vn 0.382686 -0.923878 0.000000
vn 0.923880 -0.382683 0.000000
vn -0.382685 -0.923879 0.000000
vn -0.923873 -0.382699 0.000000
vn -0.382685 -0.923879 0.000000
vn -0.923873 -0.382699 0.000000
vn -0.382685 -0.923879 0.000000
vn -0.923873 -0.382699 0.000000
vn -0.382686 -0.923878 0.000000
vn -0.923872 -0.382701 0.000000
vn -0.382686 -0.923878 0.000000
vn -0.923872 -0.382702 0.000000
vn -0.382686 -0.923879 0.000000
vn -0.923873 -0.382699 0.000000
vn 0.000000 -0.923880 -0.382682
vn 0.000000 -0.923880 -0.382682
vn 0.000000 -0.382687 -0.923878
vn 0.000000 -0.382687 -0.923878
vn 0.000000 -0.923880 0.382682
vn 0.000000 -0.923880 0.382682
vn 0.000000 -0.382687 0.923878
vn 0.000000 -0.382687 0.923878
vn 0.000000 -0.382687 -0.923878
vn 0.000000 -0.382687 -0.923878
vn 0.000000 -0.923878 -0.382686
vn 0.000000 -0.923878 -0.382686
vn 0.000000 -0.923878 0.382686
vn 0.000000 -0.923878 0.382686
vn 0.000000 -0.382687 0.923878
vn 0.000000 -0.382687 0.923878
vn 0.000000 -0.923878 -0.382686
vn 0.000000 -0.923878 -0.382686
vn 0.000000 -0.382687 -0.923878
vn 0.000000 -0.382687 -0.923878
vn 0.000000 -0.923880 0.382682
vn 0.000000 -0.923880 0.382682
vn 0.000000 -0.382687 0.923878
vn 0.000000 -0.382687 0.923878
vn 0.000000 -0.923880 -0.382682
vn 0.000000 -0.923880 -0.382682
vn 0.000000 -0.382687 -0.923878
vn 0.000000 -0.382687 -0.923878
vn 0.000000 -0.923880 0.382682
vn 0.000000 -0.923880 0.382682
vn 0.000000 -0.382687 0.923878
vn 0.000000 -0.382687 0.923878
vn 1.000000 0.000002 -0.000000
vn 1.000000 0.000002 -0.000000
vn 1.000000 0.000002 -0.000000
vn 1.000000 0.000002 -0.000000
vn 1.000000 0.000002 -0.000000
vn 1.000000 0.000002 -0.000000
vn 1.000000 0.000002 -0.000000
vn 1.000000 0.000002 -0.000000
vn -1.000000 0.000001 -0.000000
vn -1.000000 0.000001 -0.000000
vn -1.000000 0.000001 -0.000000
vn -1.000000 0.000001 -0.000000
vn -1.000000 0.000001 -0.000000
vn -1.000000 0.000001 -0.000000
vn -1.000000 0.000001 -0.000000
vn -1.000000 0.000001 -0.000000
vn 1.000000 0.000001 -0.000000
vn 1.000000 0.000001 -0.000000
vn 1.000000 0.000001 -0.000000
vn 1.000000 0.000001 -0.000000
vn 1.000000 0.000001 -0.000000
vn 1.000000 0.000001 -0.000000
vn 1.000000 0.000001 -0.000000
vn 1.000000 0.000001 -0.000000
vn -1.000000 0.000001 -0.000000
vn -1.000000 0.000001 -0.000000
vn -1.000000 0.000001 -0.000000
vn -1.000000 0.000001 -0.000000
vn -1.000000 0.000001 -0.000000
vn -1.000000 0.000001 -0.000000
vn -1.000000 0.000001 -0.000000
vn -1.000000 0.000001 -0.000000
vn 1.000000 0.000001 -0.000000
vn 1.000000 0.000001 -0.000000
vn 1.000000 0.000001 -0.000000
vn 1.000000 0.000001 -0.000000
vn 1.000000 0.000001 -0.000000
vn 1.000000 0.000001 -0.000000
vn 1.000000 0.000001 -0.000000
vn 1.000000 0.000001 -0.000000
vn -1.000000 0.000000 -0.000000
vn -1.000000 0.000000 -0.000000
vn -1.000000 0.000000 -0.000000
vn -1.000000 0.000000 -0.000000
vn -1.000000 0.000000 -0.000000
vn -1.000000 0.000000 -0.000000
vn -1.000000 0.000000 -0.000000
vn -1.000000 0.000000 -0.000000
vn 1.000000 0.000002 -0.000000
vn 1.000000 0.000002 -0.000000
vn 1.000000 0.000002 -0.000000
vn 1.000000 0.000002 -0.000000
vn 1.000000 0.000002 -0.000000
vn 1.000000 0.000002 -0.000000
vn 1.000000 0.000002 -0.000000
vn 1.000000 0.000002 -0.000000
vn -1.000000 0.000001 -0.000000
vn -1.000000 0.000001 -0.000000
vn -1.000000 0.000001 -0.000000
vn -1.000000 0.000001 -0.000000
vn -1.000000 0.000001 -0.000000
vn -1.000000 0.000001 -0.000000
vn -1.000000 0.000001 -0.000000
vn -1.000000 0.000001 -0.000000
s 1
g Ceiling1
usemtl initialShadingGroup
f 1/10/1 2/1/2 4/69/3 10/92/4 9/116/5 3/2/6
s 2
f 5/68/7 12/91/8 11/110/9 6/12/10 8/3/11 7/11/12
s off
f 7/11/13 8/3/14 2/5/15 1/4/16
f 2/1/17 8/6/18 6/7/19 4/69/20
f 7/8/21 1/10/22 3/2/23 5/9/24
s 3
f 89/93/25 92/109/26 96/95/27 98/113/28
s 4
f 104/98/29 101/114/30 108/99/31 110/118/32
s off
f 29/14/33 30/15/34 31/16/35 32/17/36
s 5
f 113/101/37 116/119/38 120/103/39 122/122/40
s off
f 33/18/41 34/19/42 35/20/43 36/21/44
s 6
f 125/105/45 128/123/46 132/107/47 134/126/48
s off
f 37/22/49 38/23/50 39/24/51 40/25/52
f 5/68/53 3/2/54 25/13/55 26/35/56
f 4/69/57 6/12/58 28/43/59 27/70/60
f 13/44/61 14/65/62 30/15/63 29/14/64
f 14/65/65 16/63/66 31/16/67 30/15/68
f 16/63/69 15/45/70 32/17/71 31/16/72
f 15/45/73 13/44/74 29/14/75 32/17/76
f 17/47/77 18/61/78 34/19/79 33/18/80
f 18/61/81 20/59/82 35/20/83 34/19/84
f 20/59/85 19/49/86 36/21/87 35/20/88
f 19/49/89 17/47/90 33/18/91 36/21/92
f 21/51/93 22/57/94 38/23/95 37/22/96
f 22/57/97 24/56/98 39/24/99 38/23/100
f 24/56/101 23/53/102 40/25/103 39/24/104
f 23/53/105 21/51/106 37/22/107 40/25/108
s 7
f 23/53/109 24/56/110 94/94/111 90/112/112
s 8
f 11/110/113 12/91/114 100/96/115 97/111/116
s 9
f 9/116/117 10/92/118 103/97/119 105/117/120
s 10
f 14/65/121 13/44/122 112/100/123 109/115/124
s 11
f 15/45/125 16/63/126 118/102/127 114/121/128
s 12
f 18/61/129 17/47/130 124/104/131 121/120/132
s 13
f 19/49/133 20/59/134 130/106/135 126/125/136
s 14
f 22/57/137 21/51/138 136/108/139 133/124/140
s 15
f 42/28/141 41/75/142 45/76/143 44/29/144
s 16
f 41/75/145 43/26/146 46/46/147 45/76/148
s 17
f 65/36/149 67/83/150 69/84/151 68/37/152
s 18
f 67/83/153 66/27/154 70/58/155 69/84/156
s 15
f 25/13/157 42/28/141 44/29/144 47/30/158 50/31/159 53/32/160 56/33/161 59/34/162 62/71/163 26/35/164
s 17
f 65/36/149 68/37/152 71/38/165 74/39/166 77/40/167 80/41/168 83/42/169 86/73/170 27/70/171 28/43/172
s 16
f 9/116/173 13/44/174 46/46/147 43/26/146
f 13/44/174 15/45/175 49/48/176 46/46/147
f 15/45/175 17/47/177 52/50/178 49/48/176
f 17/47/177 19/49/179 55/52/180 52/50/178
f 19/49/179 21/51/181 58/54/182 55/52/180
f 21/51/181 23/53/183 61/55/184 58/54/182
f 23/53/183 12/91/185 64/72/186 61/55/184
s 18
f 11/110/187 24/56/188 70/58/155 66/27/154
f 24/56/188 22/57/189 73/60/190 70/58/155
f 22/57/189 20/59/191 76/62/192 73/60/190
f 20/59/191 18/61/193 79/64/194 76/62/192
f 18/61/193 16/63/195 82/66/196 79/64/194
f 16/63/195 14/65/197 85/67/198 82/66/196
f 14/65/197 10/92/199 88/74/200 85/67/198
s 1
f 41/75/201 42/28/202 25/13/203 3/2/6 9/116/5 43/26/204
s 2
f 12/91/8 5/68/7 26/35/205 62/71/206 63/82/207 64/72/208
f 65/36/209 28/43/210 6/12/10 11/110/9 66/27/211 67/83/212
s 1
f 10/92/4 4/69/3 27/70/213 86/73/214 87/90/215 88/74/216
s 15
f 44/29/144 45/76/143 48/77/217 47/30/158
s 16
f 45/76/148 46/46/147 49/48/176 48/77/218
s 15
f 47/30/158 48/77/217 51/78/219 50/31/159
s 16
f 48/77/218 49/48/176 52/50/178 51/78/220
s 15
f 50/31/159 51/78/219 54/79/221 53/32/160
s 16
f 51/78/220 52/50/178 55/52/180 54/79/222
s 15
f 53/32/160 54/79/221 57/80/223 56/33/161
s 16
f 54/79/222 55/52/180 58/54/182 57/80/224
s 15
f 56/33/161 57/80/223 60/81/225 59/34/162
s 16
f 57/80/224 58/54/182 61/55/184 60/81/226
s 15
f 59/34/162 60/81/225 63/82/227 62/71/163
s 16
f 60/81/226 61/55/184 64/72/186 63/82/228
s 17
f 68/37/152 69/84/151 72/85/229 71/38/165
s 18
f 69/84/156 70/58/155 73/60/190 72/85/230
s 17
f 71/38/165 72/85/229 75/86/231 74/39/166
s 18
f 72/85/230 73/60/190 76/62/192 75/86/232
s 17
f 74/39/166 75/86/231 78/87/233 77/40/167
s 18
f 75/86/232 76/62/192 79/64/194 78/87/234
s 17
f 77/40/167 78/87/233 81/88/235 80/41/168
s 18
f 78/87/234 79/64/194 82/66/196 81/88/236
s 17
f 80/41/168 81/88/235 84/89/237 83/42/169
s 18
f 81/88/236 82/66/196 85/67/198 84/89/238
s 17
f 83/42/169 84/89/237 87/90/239 86/73/170
s 18
f 84/89/238 85/67/198 88/74/200 87/90/240
s 3
f 89/93/25 91/127/241 93/128/242 92/109/26
s 7
f 91/127/243 90/112/112 94/94/111 93/128/244
s 3
f 96/95/27 95/129/245 99/130/246 98/113/28
s 8
f 95/129/247 97/111/116 100/96/115 99/130/248
s 9
f 103/97/119 102/131/249 106/132/250 105/117/120
s 4
f 102/131/251 101/114/30 104/98/29 106/132/252
f 108/99/31 107/133/253 111/134/254 110/118/32
s 10
f 107/133/255 109/115/124 112/100/123 111/134/256
s 5
f 113/101/37 115/135/257 117/136/258 116/119/38
s 11
f 115/135/259 114/121/128 118/102/127 117/136/260
s 5
f 120/103/39 119/137/261 123/138/262 122/122/40
s 12
f 119/137/263 121/120/132 124/104/131 123/138/264
s 6
f 125/105/45 127/139/265 129/140/266 128/123/46
s 13
f 127/139/267 126/125/136 130/106/135 129/140/268
s 6
f 132/107/47 131/141/269 135/142/270 134/126/48
s 14
f 131/141/271 133/124/140 136/108/139 135/142/272
s off
f 95/129/273 96/95/274 92/109/275 93/128/276 94/94/277 24/56/278 11/110/279 97/111/280
f 12/91/281 23/53/282 90/112/283 91/127/284 89/93/285 98/113/286 99/130/287 100/96/288
f 107/133/289 108/99/290 101/114/291 102/131/292 103/97/293 10/92/294 14/65/295 109/115/296
f 13/44/297 9/116/298 105/117/299 106/132/300 104/98/301 110/118/302 111/134/303 112/100/304
f 119/137/305 120/103/306 116/119/307 117/136/308 118/102/309 16/63/310 18/61/311 121/120/312
f 17/47/313 15/45/314 114/121/315 115/135/316 113/101/317 122/122/318 123/138/319 124/104/320
f 131/141/321 132/107/322 128/123/323 129/140/324 130/106/325 20/59/326 22/57/327 133/124/328
f 21/51/329 19/49/330 126/125/331 127/139/332 125/105/333 134/126/334 135/142/335 136/108/336
