# This file uses meters as units for non-parametric coordinates.

mtllib Ceiling2.mtl
g default
v 99.999998 200.000001 400.000001
v 199.999998 200.000001 400.000001
v 99.999998 193.542031 400.000001
v 199.999998 193.542031 400.000001
v 99.999998 193.542031 500.000001
v 199.999998 193.542031 500.000001
v 99.999998 200.000001 500.000001
v 199.999998 200.000001 500.000001
v 110.003996 193.542031 400.000001
v 189.996000 193.542031 400.000001
v 189.996000 193.542031 500.000001
v 110.003996 193.542031 500.000001
v 110.003996 193.542031 414.285698
v 189.996000 193.542031 414.285698
v 110.003996 193.542031 428.571442
v 189.996000 193.542031 428.571442
v 110.003996 193.542031 442.857155
v 189.996000 193.542031 442.857152
v 110.003996 193.542031 457.142865
v 189.996000 193.542031 457.142865
v 110.003996 193.542031 471.428561
v 189.996000 193.542031 471.428563
v 110.003996 193.542031 485.714280
v 189.996000 193.542031 485.714280
v 99.999998 184.299576 400.000001
v 99.999998 184.299576 500.000001
v 199.999998 184.299576 400.000001
v 199.999998 184.299576 500.000001
v 110.003996 193.542031 414.285698
v 189.996000 193.542031 414.285698
v 189.996000 193.542031 428.571442
v 110.003996 193.542031 428.571442
v 110.003996 193.542031 442.857155
v 189.996000 193.542031 442.857152
v 189.996000 193.542031 457.142865
v 110.003996 193.542031 457.142865
v 110.003996 193.542031 471.428561
v 189.996000 193.542031 471.428563
v 189.996000 193.542031 485.714280
v 110.003996 193.542031 485.714280
v 109.733320 184.570256 400.000001
v 109.079847 184.299576 400.000001
v 110.003996 185.223729 400.000001
v 109.079847 184.299576 414.285698
v 109.733320 184.570256 414.285698
v 110.003996 185.223729 414.285698
v 109.079847 184.299576 428.571442
v 109.733320 184.570256 428.571442
v 110.003996 185.223729 428.571442
v 109.079847 184.299576 442.857155
v 109.733320 184.570256 442.857155
v 110.003996 185.223729 442.857155
v 109.079847 184.299576 457.142865
v 109.733320 184.570256 457.142865
v 110.003996 185.223729 457.142865
v 109.079847 184.299576 471.428561
v 109.733320 184.570256 471.428561
v 110.003996 185.223729 471.428561
v 109.079847 184.299576 485.714280
v 109.733320 184.570256 485.714280
v 110.003996 185.223729 485.714280
v 109.079847 184.299576 500.000001
v 109.733320 184.570256 500.000001
v 110.003996 185.223729 500.000001
v 190.920164 184.299576 500.000001
v 189.996000 185.223729 500.000001
v 190.266691 184.570256 500.000001
v 190.920164 184.299576 485.714280
v 190.266691 184.570256 485.714280
v 189.996000 185.223729 485.714280
v 190.920164 184.299576 471.428563
v 190.266691 184.570256 471.428563
v 189.996000 185.223729 471.428563
v 190.920164 184.299576 457.142865
v 190.266691 184.570256 457.142865
v 189.996000 185.223729 457.142865
v 190.920164 184.299576 442.857152
v 190.266691 184.570256 442.857152
v 189.996000 185.223729 442.857152
v 190.920164 184.299576 428.571442
v 190.266691 184.570256 428.571442
v 189.996000 185.223729 428.571442
v 190.920164 184.299576 414.285698
v 190.266691 184.570256 414.285698
v 189.996000 185.223729 414.285698
v 190.920164 184.299576 400.000001
v 190.266691 184.570256 400.000001
v 189.996000 185.223729 400.000001
v 110.003996 188.930169 414.746842
v 110.003996 189.391308 414.285698
v 110.003996 189.065232 414.420762
v 189.996000 188.930169 414.746842
v 189.996000 189.065232 414.420762
v 189.996000 189.391308 414.285698
v 189.996000 189.065232 428.436379
v 189.996000 188.930169 428.110299
v 189.996000 189.391308 428.571442
v 110.003996 188.930169 428.110299
v 110.003996 189.065232 428.436379
v 110.003996 189.391308 428.571442
v 110.003996 188.930169 443.318295
v 110.003996 189.391308 442.857155
v 110.003996 189.065232 442.992219
v 189.996000 188.930169 443.318291
v 189.996000 189.065232 442.992215
v 189.996000 189.391308 442.857152
v 189.996000 189.065232 457.007802
v 189.996000 188.930169 456.681725
v 189.996000 189.391308 457.142865
v 110.003996 188.930169 456.681725
v 110.003996 189.065232 457.007802
v 110.003996 189.391308 457.142865
v 110.003996 188.930169 471.889700
v 110.003996 189.391308 471.428561
v 110.003996 189.065232 471.563626
v 189.996000 188.930169 471.889702
v 189.996000 189.065232 471.563628
v 189.996000 189.391308 471.428563
v 189.996000 189.065232 485.579217
v 189.996000 188.930169 485.253140
v 189.996000 189.391308 485.714280
v 110.003996 188.930169 485.253140
v 110.003996 189.065232 485.579217
v 110.003996 189.391308 485.714280
vt 0.625000 0.000000
vt 0.375000 0.250000
vt 0.625000 0.750000
vt 0.375000 1.000000
vt 0.625000 1.000000
vt 0.875000 0.000000
vt 0.875000 0.250000
vt 0.125000 0.000000
vt 0.125000 0.250000
vt 0.375000 0.000000
vt 0.375000 0.750000
vt 0.625000 0.500000
vt 0.375000 0.250000
vt 0.400010 0.250000
vt 0.599990 0.500000
vt 0.397700 0.250000
vt 0.397702 0.285679
vt 0.397700 0.321422
vt 0.397701 0.357136
vt 0.397700 0.392856
vt 0.397700 0.428571
vt 0.397700 0.464286
vt 0.375000 0.500000
vt 0.602300 0.500000
vt 0.602300 0.464286
vt 0.602300 0.428578
vt 0.602302 0.392847
vt 0.602300 0.357145
vt 0.602300 0.321429
vt 0.602300 0.285714
vt 0.625000 0.500000
vt 0.400010 0.285714
vt 0.400010 0.321429
vt 0.400010 0.285714
vt 0.400010 0.357143
vt 0.400010 0.321429
vt 0.400010 0.392857
vt 0.400010 0.357143
vt 0.400010 0.428571
vt 0.400010 0.392857
vt 0.400010 0.464286
vt 0.400010 0.428571
vt 0.400010 0.500000
vt 0.400010 0.464286
vt 0.599990 0.464286
vt 0.599990 0.428571
vt 0.599990 0.464286
vt 0.599990 0.392857
vt 0.599990 0.428571
vt 0.599990 0.357143
vt 0.599990 0.392857
vt 0.599990 0.321429
vt 0.599990 0.357143
vt 0.599990 0.285714
vt 0.599990 0.321429
vt 0.599990 0.250000
vt 0.599990 0.285714
vt 0.400010 0.250000
vt 0.375000 0.500000
vt 0.599990 0.500000
vt 0.625000 0.250000
vt 0.625000 0.250000
vt 0.397700 0.500000
vt 0.400010 0.500000
vt 0.602300 0.250000
vt 0.599990 0.250000
vt 0.400010 0.250000
vt 0.400010 0.285714
vt 0.400010 0.321429
vt 0.400010 0.357143
vt 0.400010 0.392857
vt 0.400010 0.428571
vt 0.400010 0.464286
vt 0.400010 0.500000
vt 0.599990 0.500000
vt 0.599990 0.464286
vt 0.599990 0.428571
vt 0.599990 0.392857
vt 0.599990 0.357143
vt 0.599990 0.321429
vt 0.599990 0.285714
vt 0.599990 0.250000
vt 0.599990 0.285714
vt 0.400010 0.321429
vt 0.599990 0.357143
vt 0.400010 0.392857
vt 0.599990 0.428571
vt 0.400010 0.464286
vt 0.400010 0.286867
vt 0.599990 0.285714
vt 0.599990 0.320276
vt 0.400010 0.321429
vt 0.400010 0.358296
vt 0.599990 0.357143
vt 0.599990 0.391704
vt 0.400010 0.392857
vt 0.400010 0.429724
vt 0.599990 0.428571
vt 0.599990 0.463133
vt 0.400010 0.464286
vt 0.599990 0.286867
vt 0.599990 0.321429
vt 0.599990 0.321429
vt 0.400010 0.285714
vt 0.400010 0.285714
vt 0.400010 0.320276
vt 0.599990 0.358296
vt 0.599990 0.392857
vt 0.599990 0.392857
vt 0.400010 0.357143
vt 0.400010 0.357143
vt 0.400010 0.391704
vt 0.599990 0.429724
vt 0.599990 0.464286
vt 0.599990 0.464286
vt 0.400010 0.428571
vt 0.400010 0.428571
vt 0.400010 0.463133
vt 0.400010 0.285714
vt 0.599990 0.285714
vt 0.599990 0.321429
vt 0.400010 0.321429
vt 0.400010 0.357143
vt 0.599990 0.357143
vt 0.599990 0.392857
vt 0.400010 0.392857
vt 0.400010 0.428571
vt 0.599990 0.428571
vt 0.599990 0.464286
vt 0.400010 0.464286
vn 0.000000 0.000000 -1.000000
vn 0.000000 0.000000 -1.000000
vn -0.000000 0.000000 -1.000000
vn -0.000000 0.000000 -1.000000
vn 0.000000 0.000000 -1.000000
vn 0.000000 0.000000 -1.000000
vn 0.000000 -0.000000 1.000000
vn 0.000000 -0.000000 1.000000
vn -0.000000 -0.000000 1.000000
vn -0.000000 -0.000000 1.000000
vn 0.000000 -0.000000 1.000000
vn 0.000000 -0.000000 1.000000
vn 0.000000 1.000000 0.000000
vn 0.000000 1.000000 0.000000
vn 0.000000 1.000000 0.000000
vn 0.000000 1.000000 0.000000
vn 1.000000 0.000000 0.000000
vn 1.000000 0.000000 0.000000
vn 1.000000 0.000000 0.000000
vn 1.000000 0.000000 0.000000
vn -1.000000 0.000000 -0.000000
vn -1.000000 0.000000 -0.000000
vn -1.000000 0.000000 -0.000000
vn -1.000000 0.000000 -0.000000
vn 0.000000 -1.000000 -0.000000
vn 0.000000 -1.000000 -0.000000
vn 0.000000 -1.000000 -0.000000
vn 0.000000 -1.000000 -0.000000
vn 0.000000 -1.000000 -0.000000
vn 0.000000 -1.000000 -0.000000
vn 0.000000 -1.000000 -0.000000
vn 0.000000 -1.000000 -0.000000
vn 0.000000 -0.999951 -0.009866
vn 0.000000 -0.999951 -0.009866
vn 0.000000 -0.999951 0.009866
vn 0.000000 -0.999951 0.009866
vn 0.000000 -1.000000 -0.000000
vn 0.000000 -1.000000 -0.000000
vn 0.000000 -1.000000 -0.000000
vn 0.000000 -1.000000 -0.000000
vn -0.000000 -0.999951 -0.009866
vn -0.000000 -0.999951 -0.009866
vn 0.000000 -0.999951 0.009866
vn 0.000000 -0.999951 0.009866
vn 0.000000 -1.000000 -0.000000
vn 0.000000 -1.000000 -0.000000
vn 0.000000 -1.000000 -0.000000
vn 0.000000 -1.000000 -0.000000
vn 0.000000 -0.999951 -0.009866
vn 0.000000 -0.999951 -0.009866
vn 0.000000 -0.999951 0.009866
vn 0.000000 -0.999951 0.009866
vn -1.000000 0.000000 -0.000000
vn -1.000000 0.000000 -0.000000
vn -1.000000 0.000000 -0.000000
vn -1.000000 0.000000 -0.000000
vn 1.000000 0.000000 0.000000
vn 1.000000 0.000000 0.000000
vn 1.000000 0.000000 0.000000
vn 1.000000 0.000000 0.000000
vn 0.000000 0.000000 0.000000
vn 0.000000 0.000000 0.000000
vn 0.000000 0.000000 0.000000
vn 0.000000 0.000000 0.000000
vn 0.000000 0.000000 0.000000
vn 0.000000 0.000000 0.000000
vn 0.000000 0.000000 0.000000
vn 0.000000 0.000000 0.000000
vn 0.000000 0.000000 0.000000
vn 0.000000 0.000000 0.000000
vn 0.000000 0.000000 0.000000
vn 0.000000 0.000000 0.000000
vn 0.000000 0.000000 0.000000
vn 0.000000 0.000000 0.000000
vn 0.000000 0.000000 0.000000
vn 0.000000 0.000000 0.000000
vn 0.000000 0.000000 0.000000
vn 0.000000 0.000000 0.000000
vn 0.000000 0.000000 0.000000
vn 0.000000 0.000000 0.000000
vn 0.000000 0.000000 0.000000
vn 0.000000 0.000000 0.000000
vn 0.000000 0.000000 0.000000
vn 0.000000 0.000000 0.000000
vn 0.000000 0.000000 0.000000
vn 0.000000 0.000000 0.000000
vn 0.000000 0.000000 0.000000
vn 0.000000 0.000000 0.000000
vn 0.000000 0.000000 0.000000
vn 0.000000 0.000000 0.000000
vn 0.000000 0.000000 0.000000
vn 0.000000 0.000000 0.000000
vn 0.000000 0.000000 0.000000
vn 0.000000 0.000000 0.000000
vn 0.000000 0.000000 0.000000
vn 0.000000 0.000000 0.000000
vn 0.000000 0.000000 0.000000
vn 0.000000 0.000000 0.000000
vn 0.000000 0.000000 0.000000
vn 0.000000 0.000000 0.000000
vn 0.000000 0.000000 0.000000
vn 0.000000 0.000000 0.000000
vn 0.000000 0.000000 0.000000
vn 0.000000 0.000000 0.000000
vn 0.000000 0.000000 0.000000
vn 0.000000 0.000000 0.000000
vn 0.000000 0.000000 0.000000
vn 0.000000 0.000000 0.000000
vn 0.000000 0.000000 -1.000000
vn 0.000000 0.000000 -1.000000
vn 0.000000 -0.030156 -0.999545
vn 0.000000 -0.030156 -0.999545
vn 0.000000 -0.000000 1.000000
vn 0.000000 -0.000000 1.000000
vn 0.000000 -0.030156 0.999545
vn 0.000000 -0.030156 0.999545
vn -0.000000 0.000000 -1.000000
vn -0.000000 0.000000 -1.000000
vn -0.000000 -0.030156 -0.999545
vn -0.000000 -0.030156 -0.999545
vn 0.000000 -0.000000 1.000000
vn 0.000000 -0.000000 1.000000
vn 0.000000 -0.030156 0.999545
vn 0.000000 -0.030156 0.999545
vn 0.000000 0.000000 -1.000000
vn 0.000000 0.000000 -1.000000
vn 0.000000 -0.030156 -0.999545
vn 0.000000 -0.030156 -0.999545
vn 0.000000 -0.000000 1.000000
vn 0.000000 -0.000000 1.000000
vn 0.000000 -0.030156 0.999545
vn 0.000000 -0.030156 0.999545
vn 0.004215 -0.999991 -0.000000
vn 0.382686 -0.923879 -0.000000
vn 0.382686 -0.923878 -0.000000
vn 0.004215 -0.999991 -0.000000
vn 0.923879 -0.382684 -0.000000
vn 0.999545 -0.030156 -0.000000
vn 0.999545 -0.030156 -0.000000
vn 0.923880 -0.382683 -0.000000
vn -0.004215 -0.999991 -0.000000
vn -0.382684 -0.923879 -0.000000
vn -0.382685 -0.923879 -0.000000
vn -0.004215 -0.999991 -0.000000
vn -0.923873 -0.382699 -0.000000
vn -0.999545 -0.030158 -0.000000
vn -0.999545 -0.030158 -0.000000
vn -0.923873 -0.382699 -0.000000
vn 0.000000 -1.000000 -0.000000
vn 0.004216 -0.999991 -0.000000
vn 0.004215 -0.999991 -0.000000
vn 0.004216 -0.999991 -0.000000
vn 0.004215 -0.999991 -0.000000
vn 0.004215 -0.999991 -0.000000
vn 0.004215 -0.999991 -0.000000
vn 0.000000 -1.000000 -0.000000
vn -0.004215 -0.999991 -0.000000
vn -0.004215 -0.999991 -0.000000
vn -0.004215 -0.999991 -0.000000
vn -0.004215 -0.999991 -0.000000
vn -0.004215 -0.999991 -0.000000
vn -0.004215 -0.999991 -0.000000
vn 0.000000 -1.000000 -0.000000
vn 0.000000 -1.000000 -0.000000
vn 1.000000 0.000000 0.000000
vn 1.000000 0.000000 0.000000
vn 1.000000 0.000000 0.000000
vn 0.999545 -0.030156 -0.000000
vn 1.000000 0.000000 0.000000
vn 0.999545 -0.030156 -0.000000
vn 1.000000 0.000000 0.000000
vn 0.999545 -0.030156 -0.000000
vn 1.000000 0.000000 0.000000
vn 0.999545 -0.030156 -0.000000
vn 1.000000 0.000000 0.000000
vn 0.999545 -0.030156 -0.000000
vn 1.000000 0.000000 0.000000
vn 0.999545 -0.030156 -0.000000
vn -1.000000 0.000000 -0.000000
vn -1.000000 0.000000 -0.000000
vn -1.000000 0.000000 -0.000000
vn -0.999545 -0.030158 -0.000000
vn -1.000000 0.000000 -0.000000
vn -0.999545 -0.030158 -0.000000
vn -1.000000 0.000000 -0.000000
vn -0.999545 -0.030158 -0.000000
vn -1.000000 0.000000 -0.000000
vn -0.999545 -0.030158 -0.000000
vn -1.000000 0.000000 -0.000000
vn -0.999545 -0.030158 -0.000000
vn -1.000000 0.000000 -0.000000
vn -0.999545 -0.030158 -0.000000
vn 0.000000 0.000000 -1.000000
vn 0.000000 0.000000 -1.000000
vn 0.000000 0.000000 -1.000000
vn 0.000000 0.000000 -1.000000
vn 0.000000 -0.000000 1.000000
vn 0.000000 -0.000000 1.000000
vn 0.000000 -0.000000 1.000000
vn 0.000000 -0.000000 1.000000
vn -0.000000 -0.000000 1.000000
vn -0.000000 -0.000000 1.000000
vn -0.000000 -0.000000 1.000000
vn -0.000000 -0.000000 1.000000
vn -0.000000 0.000000 -1.000000
vn -0.000000 0.000000 -1.000000
vn -0.000000 0.000000 -1.000000
vn -0.000000 0.000000 -1.000000
vn 0.382686 -0.923878 -0.000000
vn 0.923880 -0.382683 -0.000000
vn 0.382686 -0.923879 -0.000000
vn 0.923881 -0.382681 -0.000000
vn 0.382687 -0.923878 -0.000000
vn 0.923881 -0.382681 -0.000000
vn 0.382687 -0.923878 -0.000000
vn 0.923879 -0.382684 -0.000000
vn 0.382686 -0.923878 -0.000000
vn 0.923880 -0.382683 -0.000000
vn 0.382686 -0.923878 -0.000000
vn 0.923880 -0.382683 -0.000000
vn -0.382686 -0.923879 -0.000000
vn -0.923873 -0.382699 -0.000000
vn -0.382686 -0.923879 -0.000000
vn -0.923873 -0.382699 -0.000000
vn -0.382686 -0.923879 -0.000000
vn -0.923873 -0.382699 -0.000000
vn -0.382686 -0.923878 -0.000000
vn -0.923872 -0.382701 -0.000000
vn -0.382686 -0.923878 -0.000000
vn -0.923872 -0.382702 -0.000000
vn -0.382686 -0.923879 -0.000000
vn -0.923873 -0.382699 -0.000000
vn 0.000000 -0.923883 -0.382674
vn 0.000000 -0.923883 -0.382674
vn 0.000000 -0.382679 -0.923882
vn 0.000000 -0.382679 -0.923882
vn 0.000000 -0.923883 0.382674
vn 0.000000 -0.923883 0.382674
vn 0.000000 -0.382679 0.923882
vn 0.000000 -0.382679 0.923882
vn -0.000000 -0.923882 -0.382678
vn -0.000000 -0.923882 -0.382678
vn -0.000000 -0.382679 -0.923882
vn -0.000000 -0.382679 -0.923882
vn 0.000000 -0.923882 0.382678
vn 0.000000 -0.923882 0.382678
vn 0.000000 -0.382679 0.923882
vn 0.000000 -0.382679 0.923882
vn 0.000000 -0.923881 -0.382680
vn 0.000000 -0.923881 -0.382680
vn 0.000000 -0.382683 -0.923880
vn 0.000000 -0.382683 -0.923880
vn 0.000000 -0.923882 0.382678
vn 0.000000 -0.923882 0.382678
vn 0.000000 -0.382679 0.923882
vn 0.000000 -0.382679 0.923882
vn 1.000000 0.000001 0.000000
vn 1.000000 0.000001 0.000000
vn 1.000000 0.000001 0.000000
vn 1.000000 0.000001 0.000000
vn 1.000000 0.000001 0.000000
vn 1.000000 0.000001 0.000000
vn 1.000000 0.000001 0.000000
vn 1.000000 0.000001 0.000000
vn -1.000000 0.000001 0.000000
vn -1.000000 0.000001 0.000000
vn -1.000000 0.000001 0.000000
vn -1.000000 0.000001 0.000000
vn -1.000000 0.000001 0.000000
vn -1.000000 0.000001 0.000000
vn -1.000000 0.000001 0.000000
vn -1.000000 0.000001 0.000000
vn 1.000000 0.000000 0.000000
vn 1.000000 0.000000 0.000000
vn 1.000000 0.000000 0.000000
vn 1.000000 0.000000 0.000000
vn 1.000000 0.000000 0.000000
vn 1.000000 0.000000 0.000000
vn 1.000000 0.000000 0.000000
vn 1.000000 0.000000 0.000000
vn -1.000000 -0.000001 -0.000000
vn -1.000000 -0.000001 -0.000000
vn -1.000000 -0.000001 -0.000000
vn -1.000000 -0.000001 -0.000000
vn -1.000000 -0.000001 -0.000000
vn -1.000000 -0.000001 -0.000000
vn -1.000000 -0.000001 -0.000000
vn -1.000000 -0.000001 -0.000000
vn 1.000000 -0.000001 -0.000000
vn 1.000000 -0.000001 -0.000000
vn 1.000000 -0.000001 -0.000000
vn 1.000000 -0.000001 -0.000000
vn 1.000000 -0.000001 -0.000000
vn 1.000000 -0.000001 -0.000000
vn 1.000000 -0.000001 -0.000000
vn 1.000000 -0.000001 -0.000000
vn -1.000000 -0.000001 -0.000000
vn -1.000000 -0.000001 -0.000000
vn -1.000000 -0.000001 -0.000000
vn -1.000000 -0.000001 -0.000000
vn -1.000000 -0.000001 -0.000000
vn -1.000000 -0.000001 -0.000000
vn -1.000000 -0.000001 -0.000000
vn -1.000000 -0.000001 -0.000000
s 1
g Ceiling2
usemtl initialShadingGroup
f 1/10/1 2/1/2 4/61/3 10/56/4 9/58/5 3/2/6
s 2
f 5/59/7 12/43/8 11/60/9 6/12/10 8/3/11 7/11/12
s off
f 7/11/13 8/3/14 2/5/15 1/4/16
f 2/1/17 8/6/18 6/7/19 4/61/20
f 7/8/21 1/10/22 3/2/23 5/9/24
f 23/41/25 24/45/26 11/60/27 12/43/28
f 9/58/29 10/56/30 14/54/31 13/32/32
s 3
f 89/89/33 92/101/34 96/91/35 98/106/36
s off
f 15/33/37 16/52/38 18/50/39 17/35/40
s 4
f 101/93/41 104/107/42 108/95/43 110/112/44
s off
f 19/37/45 20/48/46 22/46/47 21/39/48
s 5
f 113/97/49 116/113/50 120/99/51 122/118/52
s off
f 5/59/53 3/2/54 25/13/55 26/23/56
f 4/61/57 6/12/58 28/31/59 27/62/60
f 13/32/61 14/54/62 30/83/63 29/104/64
f 14/54/65 16/52/66 31/102/67 30/83/68
f 16/52/69 15/33/70 32/84/71 31/102/72
f 15/33/73 13/32/74 29/104/75 32/84/76
f 17/35/77 18/50/78 34/85/79 33/110/80
f 18/50/81 20/48/82 35/108/83 34/85/84
f 20/48/85 19/37/86 36/86/87 35/108/88
f 19/37/89 17/35/90 33/110/91 36/86/92
f 21/39/93 22/46/94 38/87/95 37/116/96
f 22/46/97 24/45/98 39/114/99 38/87/100
f 24/45/101 23/41/102 40/88/103 39/114/104
f 23/41/105 21/39/106 37/116/107 40/88/108
s 6
f 29/104/109 30/83/110 94/90/111 90/105/112
s 7
f 31/102/113 32/84/114 100/92/115 97/103/116
s 8
f 33/110/117 34/85/118 106/94/119 102/111/120
s 9
f 35/108/121 36/86/122 112/96/123 109/109/124
s 10
f 37/116/125 38/87/126 118/98/127 114/117/128
s 11
f 39/114/129 40/88/130 124/100/131 121/115/132
s 12
f 42/16/133 41/67/134 45/68/135 44/17/136
s 13
f 41/67/137 43/14/138 46/34/139 45/68/140
s 14
f 65/24/141 67/75/142 69/76/143 68/25/144
s 15
f 67/75/145 66/15/146 70/47/147 69/76/148
s 12
f 25/13/149 42/16/133 44/17/136 47/18/150 50/19/151 53/20/152 56/21/153 59/22/154 62/63/155 26/23/156
s 14
f 65/24/141 68/25/144 71/26/157 74/27/158 77/28/159 80/29/160 83/30/161 86/65/162 27/62/163 28/31/164
s 13
f 9/58/165 13/32/166 46/34/139 43/14/138
f 13/32/166 15/33/167 49/36/168 46/34/139
f 15/33/167 17/35/169 52/38/170 49/36/168
f 17/35/169 19/37/171 55/40/172 52/38/170
f 19/37/171 21/39/173 58/42/174 55/40/172
f 21/39/173 23/41/175 61/44/176 58/42/174
f 23/41/175 12/43/177 64/64/178 61/44/176
s 15
f 11/60/179 24/45/180 70/47/147 66/15/146
f 24/45/180 22/46/181 73/49/182 70/47/147
f 22/46/181 20/48/183 76/51/184 73/49/182
f 20/48/183 18/50/185 79/53/186 76/51/184
f 18/50/185 16/52/187 82/55/188 79/53/186
f 16/52/187 14/54/189 85/57/190 82/55/188
f 14/54/189 10/56/191 88/66/192 85/57/190
s 1
f 41/67/193 42/16/194 25/13/195 3/2/6 9/58/5 43/14/196
s 2
f 12/43/8 5/59/7 26/23/197 62/63/198 63/74/199 64/64/200
f 65/24/201 28/31/202 6/12/10 11/60/9 66/15/203 67/75/204
s 1
f 10/56/4 4/61/3 27/62/205 86/65/206 87/82/207 88/66/208
s 12
f 44/17/136 45/68/135 48/69/209 47/18/150
s 13
f 45/68/140 46/34/139 49/36/168 48/69/210
s 12
f 47/18/150 48/69/209 51/70/211 50/19/151
s 13
f 48/69/210 49/36/168 52/38/170 51/70/212
s 12
f 50/19/151 51/70/211 54/71/213 53/20/152
s 13
f 51/70/212 52/38/170 55/40/172 54/71/214
s 12
f 53/20/152 54/71/213 57/72/215 56/21/153
s 13
f 54/71/214 55/40/172 58/42/174 57/72/216
s 12
f 56/21/153 57/72/215 60/73/217 59/22/154
s 13
f 57/72/216 58/42/174 61/44/176 60/73/218
s 12
f 59/22/154 60/73/217 63/74/219 62/63/155
s 13
f 60/73/218 61/44/176 64/64/178 63/74/220
s 14
f 68/25/144 69/76/143 72/77/221 71/26/157
s 15
f 69/76/148 70/47/147 73/49/182 72/77/222
s 14
f 71/26/157 72/77/221 75/78/223 74/27/158
s 15
f 72/77/222 73/49/182 76/51/184 75/78/224
s 14
f 74/27/158 75/78/223 78/79/225 77/28/159
s 15
f 75/78/224 76/51/184 79/53/186 78/79/226
s 14
f 77/28/159 78/79/225 81/80/227 80/29/160
s 15
f 78/79/226 79/53/186 82/55/188 81/80/228
s 14
f 80/29/160 81/80/227 84/81/229 83/30/161
s 15
f 81/80/228 82/55/188 85/57/190 84/81/230
s 14
f 83/30/161 84/81/229 87/82/231 86/65/162
s 15
f 84/81/230 85/57/190 88/66/192 87/82/232
s 3
f 89/89/33 91/119/233 93/120/234 92/101/34
s 6
f 91/119/235 90/105/112 94/90/111 93/120/236
s 3
f 96/91/35 95/121/237 99/122/238 98/106/36
s 7
f 95/121/239 97/103/116 100/92/115 99/122/240
s 4
f 101/93/41 103/123/241 105/124/242 104/107/42
s 8
f 103/123/243 102/111/120 106/94/119 105/124/244
s 4
f 108/95/43 107/125/245 111/126/246 110/112/44
s 9
f 107/125/247 109/109/124 112/96/123 111/126/248
s 5
f 113/97/49 115/127/249 117/128/250 116/113/50
s 10
f 115/127/251 114/117/128 118/98/127 117/128/252
s 5
f 120/99/51 119/129/253 123/130/254 122/118/52
s 11
f 119/129/255 121/115/132 124/100/131 123/130/256
s off
f 95/121/257 96/91/258 92/101/259 93/120/260 94/90/261 30/83/262 31/102/263 97/103/264
f 32/84/265 29/104/266 90/105/267 91/119/268 89/89/269 98/106/270 99/122/271 100/92/272
f 107/125/273 108/95/274 104/107/275 105/124/276 106/94/277 34/85/278 35/108/279 109/109/280
f 36/86/281 33/110/282 102/111/283 103/123/284 101/93/285 110/112/286 111/126/287 112/96/288
f 119/129/289 120/99/290 116/113/291 117/128/292 118/98/293 38/87/294 39/114/295 121/115/296
f 40/88/297 37/116/298 114/117/299 115/127/300 113/97/301 122/118/302 123/130/303 124/100/304
